<svg xmlns="http://www.w3.org/2000/svg" viewBox="0 0 900 320">
  <defs>
    <linearGradient id="bg" x1="0%" y1="0%" x2="100%" y2="100%">
      <stop offset="0%" style="stop-color:#0f0c29"/>
      <stop offset="50%" style="stop-color:#302b63"/>
      <stop offset="100%" style="stop-color:#24243e"/>
    </linearGradient>
    <linearGradient id="accent" x1="0%" y1="0%" x2="100%" y2="0%">
      <stop offset="0%" style="stop-color:#f093fb"/>
      <stop offset="100%" style="stop-color:#f5576c"/>
    </linearGradient>
    <linearGradient id="gold" x1="0%" y1="0%" x2="100%" y2="0%">
      <stop offset="0%" style="stop-color:#f7971e"/>
      <stop offset="100%" style="stop-color:#ffd200"/>
    </linearGradient>
    <linearGradient id="blue" x1="0%" y1="0%" x2="100%" y2="0%">
      <stop offset="0%" style="stop-color:#667eea"/>
      <stop offset="100%" style="stop-color:#764ba2"/>
    </linearGradient>
    <linearGradient id="green" x1="0%" y1="0%" x2="100%" y2="0%">
      <stop offset="0%" style="stop-color:#11998e"/>
      <stop offset="100%" style="stop-color:#38ef7d"/>
    </linearGradient>
    <filter id="glow">
      <feGaussianBlur stdDeviation="3" result="coloredBlur"/>
      <feMerge><feMergeNode in="coloredBlur"/><feMergeNode in="SourceGraphic"/></feMerge>
    </filter>
    <filter id="shadow">
      <feDropShadow dx="0" dy="2" stdDeviation="4" flood-color="#000" flood-opacity="0.3"/>
    </filter>
  </defs>

  <!-- Background -->
  <rect width="900" height="320" fill="url(#bg)" rx="12"/>

  <!-- Grid pattern -->
  <g opacity="0.06">
    <line x1="0" y1="40" x2="900" y2="40" stroke="#fff" stroke-width="0.5"/>
    <line x1="0" y1="80" x2="900" y2="80" stroke="#fff" stroke-width="0.5"/>
    <line x1="0" y1="120" x2="900" y2="120" stroke="#fff" stroke-width="0.5"/>
    <line x1="0" y1="160" x2="900" y2="160" stroke="#fff" stroke-width="0.5"/>
    <line x1="0" y1="200" x2="900" y2="200" stroke="#fff" stroke-width="0.5"/>
    <line x1="0" y1="240" x2="900" y2="240" stroke="#fff" stroke-width="0.5"/>
    <line x1="0" y1="280" x2="900" y2="280" stroke="#fff" stroke-width="0.5"/>
    <line x1="100" y1="0" x2="100" y2="320" stroke="#fff" stroke-width="0.5"/>
    <line x1="200" y1="0" x2="200" y2="320" stroke="#fff" stroke-width="0.5"/>
    <line x1="300" y1="0" x2="300" y2="320" stroke="#fff" stroke-width="0.5"/>
    <line x1="400" y1="0" x2="400" y2="320" stroke="#fff" stroke-width="0.5"/>
    <line x1="500" y1="0" x2="500" y2="320" stroke="#fff" stroke-width="0.5"/>
    <line x1="600" y1="0" x2="600" y2="320" stroke="#fff" stroke-width="0.5"/>
    <line x1="700" y1="0" x2="700" y2="320" stroke="#fff" stroke-width="0.5"/>
    <line x1="800" y1="0" x2="800" y2="320" stroke="#fff" stroke-width="0.5"/>
  </g>

  <!-- Decorative math formula (background) -->
  <text x="680" y="75" font-family="Georgia, serif" font-size="22" fill="#fff" opacity="0.07"
        transform="rotate(-12 680 75)">+Ć╣ f(x)dx = F(1)F(0)</text>
  <text x="60" y="290" font-family="Georgia, serif" font-size="18" fill="#fff" opacity="0.06"
        transform="rotate(5 60 290)">Öīü^ 1/n▓ = └▓/6</text>
  <text x="620" y="270" font-family="Georgia, serif" font-size="16" fill="#fff" opacity="0.06">
    ĘE = ┴/ĄĆ</text>

  <!-- Decorative circles -->
  <circle cx="780" cy="60" r="45" fill="none" stroke="url(#accent)" stroke-width="1.5" opacity="0.15"/>
  <circle cx="800" cy="50" r="25" fill="none" stroke="url(#green)" stroke-width="1" opacity="0.12"/>
  <circle cx="120" cy="260" r="35" fill="none" stroke="url(#blue)" stroke-width="1.5" opacity="0.12"/>

  <!-- Flow diagram (simplified pipeline) -->
  <g transform="translate(520, 125)" filter="shadow">
    <!-- Stage boxes -->
    <rect x="0" y="0" width="90" height="36" rx="6" fill="url(#blue)" opacity="0.85"/>
    <text x="45" y="22" text-anchor="middle" font-family="system-ui, sans-serif" font-size="11" fill="#fff" font-weight="600">OCR</text>

    <rect x="120" y="-25" width="90" height="36" rx="6" fill="url(#green)" opacity="0.85"/>
    <text x="165" y="-3" text-anchor="middle" font-family="system-ui, sans-serif" font-size="11" fill="#fff" font-weight="600">Text LLM</text>

    <rect x="120" y="25" width="90" height="36" rx="6" fill="url(#accent)" opacity="0.85"/>
    <text x="165" y="47" text-anchor="middle" font-family="system-ui, sans-serif" font-size="11" fill="#fff" font-weight="600">Vision LLM</text>

    <rect x="240" y="0" width="90" height="36" rx="6" fill="url(#gold)" opacity="0.85"/>
    <text x="285" y="22" text-anchor="middle" font-family="system-ui, sans-serif" font-size="11" fill="#302b63" font-weight="700">Answer</text>

    <!-- Arrows -->
    <line x1="92" y1="12" x2="118" y2="-3" stroke="#aaa" stroke-width="1.5" marker-end="url(#arrowhead)"/>
    <line x1="92" y1="24" x2="118" y2="39" stroke="#aaa" stroke-width="1.5"/>
    <line x1="212" y1="-3" x2="238" y2="12" stroke="#aaa" stroke-width="1.5"/>
    <line x1="212" y1="39" x2="238" y2="24" stroke="#aaa" stroke-width="1.5"/>

    <!-- Labels -->
    <text x="105" y="-20" font-family="system-ui, sans-serif" font-size="8" fill="#aaa">Ó■h</text>
    <text x="105" y="72" font-family="system-ui, sans-serif" font-size="8" fill="#aaa">	■h</text>
  </g>

  <!-- Main title -->
  <text x="60" y="85" font-family="system-ui, -apple-system, sans-serif" font-size="38" fill="#fff" font-weight="800" filter="shadow">
    XJTU Math Vision
  </text>

  <!-- Subtitle Chinese -->
  <text x="62" y="120" font-family="system-ui, -apple-system, sans-serif" font-size="18" fill="#c4b5fd" font-weight="500">
    2025 ż'pn▐[ Ę pfś■ŽŃ╣H
  </text>

  <!-- Score badge -->
  <g transform="translate(62, 142)">
    <rect width="120" height="34" rx="17" fill="url(#gold)" filter="shadow"/>
    <text x="60" y="23" text-anchor="middle" font-family="system-ui, sans-serif" font-size="16" fill="#302b63" font-weight="800">
      Score 67.4
    </text>
  </g>

  <!-- Tech badges -->
  <g transform="translate(200, 142)">
    <rect width="72" height="34" rx="17" fill="none" stroke="#667eea" stroke-width="1.5"/>
    <text x="36" y="22" text-anchor="middle" font-family="system-ui, sans-serif" font-size="11" fill="#667eea" font-weight="600">vLLM</text>
  </g>
  <g transform="translate(282, 142)">
    <rect width="100" height="34" rx="17" fill="none" stroke="#38ef7d" stroke-width="1.5"/>
    <text x="50" y="22" text-anchor="middle" font-family="system-ui, sans-serif" font-size="11" fill="#38ef7d" font-weight="600">InternVL3.5</text>
  </g>
  <g transform="translate(392, 142)">
    <rect width="108" height="34" rx="17" fill="none" stroke="#f093fb" stroke-width="1.5"/>
    <text x="54" y="22" text-anchor="middle" font-family="system-ui, sans-serif" font-size="11" fill="#f093fb" font-weight="600">OpenMath</text>
  </g>

  <!-- Description line -->
  <text x="62" y="210" font-family="system-ui, sans-serif" font-size="13" fill="#94a3b8">
    	6ĄA4┐OCR Ų+ Æ ■hA Æ ╠!ŗ©  |  V100-32GB Ua╣H
  </text>

  <!-- Bottom info bar -->
  <rect x="0" y="280" width="900" height="40" fill="#000" opacity="0.2" rx="0"/>
  <text x="62" y="305" font-family="monospace" font-size="12" fill="#64748b">
    InternVL3.5-2B-Instruct  Ę  OpenMath-Nemotron-1.5B  Ę  SFT + GRPO  Ę  math_verify  Ę  V100 Optimized
  </text>
</svg>
